<svg width="32" height="32" viewBox="0 0 32 32" fill="none" xmlns="http://www.w3.org/2000/svg">
<rect width="32" height="32" rx="8" fill="#1D1D1D"/>
<path d="M16 6.03998C10.5 6.03998 6 10.53 6 16.06C6 21.06 9.66 25.21 14.44 25.96V18.96H11.9V16.06H14.44V13.85C14.44 11.34 15.93 9.95998 18.22 9.95998C19.31 9.95998 20.45 10.15 20.45 10.15V12.62H19.19C17.95 12.62 17.56 13.39 17.56 14.18V16.06H20.34L19.89 18.96H17.56V25.96C19.9164 25.5878 22.0622 24.3855 23.6099 22.57C25.1576 20.7546 26.0054 18.4456 26 16.06C26 10.53 21.5 6.03998 16 6.03998Z" fill="#0094FF"/>
</svg>
