<svg width="32" height="32" viewBox="0 0 32 32" fill="none" xmlns="http://www.w3.org/2000/svg">
<rect width="32" height="32" rx="8" fill="#1D1D1D"/>
<path d="M22 5.5H10C7.51472 5.5 5.5 7.51472 5.5 10V22C5.5 24.4853 7.51472 26.5 10 26.5H22C24.4853 26.5 26.5 24.4853 26.5 22V10C26.5 7.51472 24.4853 5.5 22 5.5Z" fill="url(#paint0_radial_359_20177)"/>
<path d="M22 5.5H10C7.51472 5.5 5.5 7.51472 5.5 10V22C5.5 24.4853 7.51472 26.5 10 26.5H22C24.4853 26.5 26.5 24.4853 26.5 22V10C26.5 7.51472 24.4853 5.5 22 5.5Z" fill="url(#paint1_radial_359_20177)"/>
<path d="M22 5.5H10C7.51472 5.5 5.5 7.51472 5.5 10V22C5.5 24.4853 7.51472 26.5 10 26.5H22C24.4853 26.5 26.5 24.4853 26.5 22V10C26.5 7.51472 24.4853 5.5 22 5.5Z" fill="url(#paint2_radial_359_20177)"/>
<path d="M21.25 11.875C21.25 12.4963 20.7463 13 20.125 13C19.5037 13 19 12.4963 19 11.875C19 11.2537 19.5037 10.75 20.125 10.75C20.7463 10.75 21.25 11.2537 21.25 11.875Z" fill="white"/>
<path fill-rule="evenodd" clip-rule="evenodd" d="M16 19.75C18.0711 19.75 19.75 18.0711 19.75 16C19.75 13.929 18.0711 12.25 16 12.25C13.929 12.25 12.25 13.929 12.25 16C12.25 18.0711 13.929 19.75 16 19.75ZM16 18.25C17.2427 18.25 18.25 17.2427 18.25 16C18.25 14.7573 17.2427 13.75 16 13.75C14.7573 13.75 13.75 14.7573 13.75 16C13.75 17.2427 14.7573 18.25 16 18.25Z" fill="white"/>
<path fill-rule="evenodd" clip-rule="evenodd" d="M8.5 15.7C8.5 13.1798 8.5 11.9196 8.99047 10.957C9.4219 10.1103 10.1103 9.4219 10.957 8.99047C11.9196 8.5 13.1798 8.5 15.7 8.5H16.3C18.8202 8.5 20.0804 8.5 21.0429 8.99047C21.8897 9.4219 22.5781 10.1103 23.0095 10.957C23.5 11.9196 23.5 13.1798 23.5 15.7V16.3C23.5 18.8202 23.5 20.0804 23.0095 21.0429C22.5781 21.8897 21.8897 22.5781 21.0429 23.0095C20.0804 23.5 18.8202 23.5 16.3 23.5H15.7C13.1798 23.5 11.9196 23.5 10.957 23.0095C10.1103 22.5781 9.4219 21.8897 8.99047 21.0429C8.5 20.0804 8.5 18.8202 8.5 16.3V15.7ZM15.7 10H16.3C17.5849 10 18.4583 10.0012 19.1334 10.0563C19.7911 10.1101 20.1274 10.2074 20.362 10.327C20.9264 10.6146 21.3854 11.0735 21.673 11.638C21.7925 11.8726 21.89 12.2089 21.9437 12.8666C21.9988 13.5417 22 14.4151 22 15.7V16.3C22 17.5849 21.9988 18.4583 21.9437 19.1334C21.89 19.7911 21.7925 20.1274 21.673 20.362C21.3854 20.9264 20.9264 21.3854 20.362 21.673C20.1274 21.7925 19.7911 21.89 19.1334 21.9437C18.4583 21.9988 17.5849 22 16.3 22H15.7C14.4151 22 13.5417 21.9988 12.8666 21.9437C12.2089 21.89 11.8726 21.7925 11.638 21.673C11.0735 21.3854 10.6146 20.9264 10.327 20.362C10.2074 20.1274 10.1101 19.7911 10.0563 19.1334C10.0012 18.4583 10 17.5849 10 16.3V15.7C10 14.4151 10.0012 13.5417 10.0563 12.8666C10.1101 12.2089 10.2074 11.8726 10.327 11.638C10.6146 11.0735 11.0735 10.6146 11.638 10.327C11.8726 10.2074 12.2089 10.1101 12.8666 10.0563C13.5417 10.0012 14.4151 10 15.7 10Z" fill="white"/>
<defs>
<radialGradient id="paint0_radial_359_20177" cx="0" cy="0" r="1" gradientUnits="userSpaceOnUse" gradientTransform="translate(13 21.25) rotate(-55.3758) scale(19.1397)">
<stop stop-color="#B13589"/>
<stop offset="0.79309" stop-color="#C62F94"/>
<stop offset="1" stop-color="#8A3AC8"/>
</radialGradient>
<radialGradient id="paint1_radial_359_20177" cx="0" cy="0" r="1" gradientUnits="userSpaceOnUse" gradientTransform="translate(12.25 27.25) rotate(-65.1363) scale(16.9457)">
<stop stop-color="#E0E8B7"/>
<stop offset="0.444662" stop-color="#FB8A2E"/>
<stop offset="0.71474" stop-color="#E2425C"/>
<stop offset="1" stop-color="#E2425C" stop-opacity="0"/>
</radialGradient>
<radialGradient id="paint2_radial_359_20177" cx="0" cy="0" r="1" gradientUnits="userSpaceOnUse" gradientTransform="translate(4.375 6.25) rotate(-8.1301) scale(29.1682 6.23877)">
<stop offset="0.156701" stop-color="#406ADC"/>
<stop offset="0.467799" stop-color="#6A45BE"/>
<stop offset="1" stop-color="#6A45BE" stop-opacity="0"/>
</radialGradient>
</defs>
</svg>
