<svg width="32" height="32" viewBox="0 0 32 32" fill="none" xmlns="http://www.w3.org/2000/svg">
<rect width="32" height="32" rx="8" fill="#1D1D1D"/>
<path d="M13.2325 14.778V14.0172C12.9685 13.9754 12.7017 13.9525 12.4344 13.9487C9.84614 13.9432 7.55471 15.6204 6.77745 18.0892C6.0002 20.5579 6.91766 23.2454 9.04213 24.7236C8.26308 23.8898 7.742 22.8484 7.54179 21.725C7.34158 20.6016 7.4708 19.4443 7.91384 18.3927C8.35688 17.3412 9.09482 16.4403 10.0386 15.7989C10.9823 15.1575 12.0915 14.803 13.2324 14.7781L13.2325 14.778Z" fill="#25F4EE"/>
<path d="M13.3758 23.3954C14.8229 23.3934 16.0124 22.2534 16.0758 20.8076V7.90648H18.4327C18.3846 7.63689 18.3616 7.36343 18.3641 7.0896L15.1404 7.0896V19.9783C15.0868 21.4314 13.8944 22.5824 12.4404 22.5847C12.0059 22.581 11.5785 22.4742 11.1934 22.273C11.443 22.6188 11.7708 22.9007 12.1501 23.0958C12.5293 23.2908 12.9493 23.3935 13.3758 23.3954ZM22.8349 12.2837V11.5666C21.9675 11.567 21.1193 11.311 20.3969 10.8309C21.0302 11.5671 21.886 12.0771 22.8349 12.2837Z" fill="#25F4EE"/>
<path d="M20.3953 10.8309C19.6836 10.0205 19.2913 8.97869 19.2917 7.90015H18.4311C18.5423 8.49646 18.7738 9.06387 19.1115 9.56776C19.4492 10.0716 19.886 10.5014 20.3953 10.8309ZM12.4326 17.1723C11.8291 17.1754 11.2439 17.3802 10.7701 17.754C10.2963 18.1279 9.96103 18.6494 9.81768 19.2357C9.67432 19.822 9.73108 20.4394 9.97892 20.9897C10.2268 21.54 10.6515 21.9917 11.1855 22.2729C10.8935 21.8698 10.7187 21.3938 10.6803 20.8975C10.6418 20.4012 10.7414 19.9039 10.9679 19.4607C11.1944 19.0174 11.539 18.6454 11.9636 18.3857C12.3883 18.126 12.8765 17.9888 13.3743 17.9891C13.6449 17.9927 13.9136 18.0348 14.1723 18.1142V14.834C13.9081 14.7944 13.6414 14.7736 13.3743 14.7717H13.2308V17.2658C12.9707 17.1961 12.7018 17.1646 12.4326 17.1723Z" fill="#FE2C55"/>
<path d="M22.836 12.2836V14.7778C21.2301 14.7747 19.666 14.2664 18.3651 13.3249V19.8784C18.3582 23.1485 15.7053 25.7959 12.4352 25.7959C11.2207 25.7981 10.0355 25.4233 9.04297 24.7234C9.8523 25.5939 10.905 26.2005 12.064 26.4642C13.223 26.7279 14.4345 26.6364 15.5408 26.2017C16.6471 25.7671 17.5968 25.0093 18.2663 24.0272C18.9358 23.045 19.294 21.8841 19.2943 20.6955V14.1605C20.5995 15.0958 22.1655 15.5974 23.7713 15.5947V12.3831C23.4569 12.3822 23.1435 12.3488 22.836 12.2836Z" fill="#FE2C55"/>
<path d="M18.3632 19.8785V13.325C19.668 14.2611 21.2343 14.7629 22.8402 14.7592V12.265C21.8915 12.0647 21.0336 11.5613 20.396 10.8309C19.8866 10.5014 19.4498 10.0716 19.1121 9.56776C18.7744 9.06387 18.5429 8.49646 18.4317 7.90015H16.0749V20.8078C16.0519 21.3696 15.8545 21.9104 15.5101 22.3549C15.1657 22.7994 14.6913 23.1255 14.153 23.288C13.6147 23.4506 13.0391 23.4413 12.5063 23.2617C11.9735 23.082 11.5098 22.7408 11.1798 22.2855C10.6457 22.0044 10.2209 21.5527 9.97298 21.0023C9.72508 20.452 9.6683 19.8345 9.81166 19.2482C9.95502 18.6618 10.2903 18.1402 10.7642 17.7664C11.2381 17.3925 11.8234 17.1878 12.427 17.1848C12.6977 17.1872 12.9666 17.2292 13.2251 17.3095V14.8153C12.0782 14.8347 10.9616 15.1875 10.0117 15.8305C9.06177 16.4735 8.31945 17.3791 7.87525 18.4367C7.43105 19.4943 7.30417 20.6583 7.51008 21.7868C7.71598 22.9153 8.24578 23.9594 9.03487 24.792C10.0371 25.4689 11.2241 25.8196 12.4333 25.796C15.7034 25.796 18.3563 23.1486 18.3632 19.8785Z" fill="white"/>
</svg>
