<svg width="32" height="32" viewBox="0 0 32 32" fill="none" xmlns="http://www.w3.org/2000/svg">
<rect width="32" height="32" rx="8" fill="#1D1D1D"/>
<g clip-path="url(#clip0_359_20190)">
<path d="M10.6895 10.1936L19.3565 21.7796H21.3192L12.6521 10.1936H10.6895Z" fill="white"/>
<path d="M15.9875 4.1319C9.44029 4.1319 4.13281 9.43937 4.13281 15.9866C4.13281 22.5338 9.44029 27.8413 15.9875 27.8413C22.5347 27.8413 27.8422 22.5338 27.8422 15.9866C27.8422 9.43937 22.5347 4.1319 15.9875 4.1319ZM18.8937 22.7053L14.948 17.4294L10.0644 22.7053H8.80909L14.3871 16.6794L8.84413 9.26787H13.1163L16.7502 14.1267L21.2476 9.26787H22.5028L17.311 14.877L23.1659 22.7053H18.8937Z" fill="white"/>
</g>
<defs>
<clipPath id="clip0_359_20190">
<rect width="24" height="24" fill="white" transform="translate(4 4)"/>
</clipPath>
</defs>
</svg>
