<svg width="32" height="32" viewBox="0 0 32 32" fill="none" xmlns="http://www.w3.org/2000/svg">
<rect width="32" height="32" rx="8" fill="#1D1D1D"/>
<g clip-path="url(#clip0_359_20185)">
<path d="M13.5 19.5454V12.4545L20 16L13.5 19.5454Z" fill="white"/>
<path d="M26.0581 10.945C25.9386 10.5011 25.7045 10.0963 25.3794 9.77115C25.0543 9.44604 24.6495 9.21203 24.2056 9.09252C22.5706 8.65002 16.0006 8.65002 16.0006 8.65002C16.0006 8.65002 9.43056 8.65002 7.79556 9.09252C7.35159 9.21203 6.9468 9.44604 6.62169 9.77115C6.29658 10.0963 6.06257 10.5011 5.94306 10.945C5.63777 12.6125 5.48962 14.3049 5.50056 16C5.48962 17.6952 5.63777 19.3876 5.94306 21.055C6.06257 21.499 6.29658 21.9038 6.62169 22.2289C6.9468 22.554 7.35159 22.788 7.79556 22.9075C9.43056 23.35 16.0006 23.35 16.0006 23.35C16.0006 23.35 22.5706 23.35 24.2056 22.9075C24.6495 22.788 25.0543 22.554 25.3794 22.2289C25.7045 21.9038 25.9386 21.499 26.0581 21.055C26.3634 19.3876 26.5115 17.6952 26.5006 16C26.5115 14.3049 26.3634 12.6125 26.0581 10.945ZM13.9006 19.15V12.85L19.3531 16L13.9006 19.15Z" fill="#FF0000"/>
</g>
<defs>
<clipPath id="clip0_359_20185">
<rect width="24" height="24" fill="white" transform="translate(4 4)"/>
</clipPath>
</defs>
</svg>
